<?xml version="1.0" encoding="UTF-8" standalone="no"?>
<svg
   xmlns:dc="http://purl.org/dc/elements/1.1/"
   xmlns:cc="http://creativecommons.org/ns#"
   xmlns:rdf="http://www.w3.org/1999/02/22-rdf-syntax-ns#"
   xmlns:svg="http://www.w3.org/2000/svg"
   xmlns="http://www.w3.org/2000/svg"
   xmlns:sodipodi="http://sodipodi.sourceforge.net/DTD/sodipodi-0.dtd"
   xmlns:inkscape="http://www.inkscape.org/namespaces/inkscape"
   width="46"
   height="64"
   viewBox="0 0 12.170833 16.933334"
   version="1.1"
   id="svg8"
   inkscape:version="1.0.2 (e86c8708, 2021-01-15)"
   sodipodi:docname="opportu_retina.svg">
  <defs
     id="defs2" />
  <sodipodi:namedview
     id="base"
     pagecolor="#ffffff"
     bordercolor="#666666"
     borderopacity="1.0"
     inkscape:pageopacity="0.0"
     inkscape:pageshadow="2"
     inkscape:zoom="7.9195959"
     inkscape:cx="16.232355"
     inkscape:cy="28.794107"
     inkscape:document-units="mm"
     inkscape:current-layer="g996"
     inkscape:document-rotation="0"
     showgrid="false"
     units="px"
     inkscape:window-width="1252"
     inkscape:window-height="755"
     inkscape:window-x="0"
     inkscape:window-y="235"
     inkscape:window-maximized="0" />
  <metadata
     id="metadata5">
    <rdf:RDF>
      <cc:Work
         rdf:about="">
        <dc:format>image/svg+xml</dc:format>
        <dc:type
           rdf:resource="http://purl.org/dc/dcmitype/StillImage" />
        <dc:title></dc:title>
      </cc:Work>
    </rdf:RDF>
  </metadata>
  <g
     inkscape:label="Layer 1"
     inkscape:groupmode="layer"
     id="layer1">
    <g
       id="g996">
      <g
         id="g1004"
         inkscape:export-xdpi="96"
         inkscape:export-ydpi="96">
        <path
           style="fill:#a0c6dd;fill-opacity:1;stroke-width:0.287635"
           d="m 0.01683535,9.1721973 0.15881343,1.2957687 c 0.34910495,1.859294 1.39064602,4.094903 2.59152122,5.151582 0.5446879,0.479282 1.3602104,1.075626 2.1431397,1.182164 0,0 0.7664008,0.129718 1.1532213,0.131602 0.361076,0.0017 1.0774622,-0.11248 1.0774622,-0.11248 1.7503283,-0.181906 4.3641668,-3.335506 4.8396008,-6.315187 L 12.170833,9.3161716 H 10.578772 8.9872695 L 8.7970302,10.44547 C 8.5402443,11.96868 7.163728,14.073013 6.0450121,14.652783 4.1752071,15.6218 2.2852932,14.168891 1.0241503,11.674314 0.66882147,10.971463 0.42687554,10.125874 0.10269563,9.3622883 0.07550353,9.2982521 0.01683535,9.1721973 0.01683535,9.1721973 Z"
           id="path992"
           sodipodi:nodetypes="ccsccccccccsscc" />
        <path
           style="fill:#579bc0;fill-opacity:1;stroke-width:0.287635"
           d="m 2e-7,7.7611357 0.158814,-1.295769 c 0.349105,-1.859294 1.390646,-4.0949028 2.591521,-5.1515819 0.544688,-0.479282 1.3602099,-1.075626 2.1431389,-1.182164 0,0 0.7664011,-0.129718 1.1532219,-0.131602003502 C 6.407772,-0.0016812 7.1241582,0.1124988 7.1241582,0.1124988 c 1.7503283,0.181906 4.3641668,3.335506 4.8396008,6.3151869 l 0.190239,1.189476 H 10.561937 8.9704345 L 8.7801952,6.4878627 C 8.5234093,4.9646527 7.146893,2.8603199 6.0281771,2.2805499 4.1583721,1.3115328 2.2684582,2.7644419 1.0073152,5.2590187 0.6519862,5.9618697 0.4100402,6.8074587 0.0858602,7.5710447 0.0586702,7.6350847 2e-7,7.7611357 2e-7,7.7611357 Z"
           id="path1000"
           sodipodi:nodetypes="ccsccccccccsscc" />
      </g>
    </g>
  </g>
</svg>
